<?xml version="1.0" encoding="utf-8"?>
<!-- Generator: Adobe Illustrator 25.4.1, SVG Export Plug-In . SVG Version: 6.00 Build 0)  -->
<svg version="1.1" id="Capa_1" xmlns="http://www.w3.org/2000/svg" xmlns:xlink="http://www.w3.org/1999/xlink" x="0px" y="0px"
	 viewBox="0 0 512 575" style="enable-background:new 0 0 512 575;" xml:space="preserve">
<style type="text/css">
	.st0{fill:#F9F9F9;}
</style>
<path class="st0" d="M112.6,102.5l60.4,21.1l161.2,56.2l60.4,21.1l40.2,14l20.1,7c11.1,3.9,23.3-2.1,27.1-13.1
	c3.8-11-1.9-23.3-13.1-27.2l-40.3-14l-60.4-21.1l21.1-60.4c3.9-11.1-2-23.2-13.1-27.1l-161-56.3c-11.1-3.9-23.3,2.1-27.1,13.1
	L167,76.2l-60.4-21.1l-40.3-14C55.1,37.3,43,43.2,39.1,54.2c-3.8,11,1.9,23.3,13.1,27.2l10.7,3.7l9.4,3.3L112.6,102.5z M221.2,50
	l120.9,42.1l-14,40.3L207.2,90.3L221.2,50z"/>
<path class="st0" d="M405.3,511c0,11.8-9.6,21.3-21.3,21.3H128c-11.8,0-21.3-9.6-21.3-21.3V191H64v320c0,35.3,28.7,64,64,64h256
	c35.3,0,64-28.7,64-64V191h-42.6L405.3,511z"/>
<path class="st0" d="M192,468.3c11.8,0,21.3-9.6,21.3-21.3V255c0-11.8-9.5-21.3-21.3-21.3s-21.3,9.6-21.3,21.3v192
	C170.7,458.8,180.2,468.3,192,468.3z"/>
<path class="st0" d="M320,468.3c11.8,0,21.3-9.6,21.3-21.3V255c0-11.8-9.5-21.3-21.3-21.3s-21.3,9.6-21.3,21.3v192
	C298.7,458.8,308.2,468.3,320,468.3z"/>
</svg>
