<?xml version="1.0" encoding="utf-8"?>
<!-- Generator: Adobe Illustrator 25.4.1, SVG Export Plug-In . SVG Version: 6.00 Build 0)  -->
<svg version="1.1" id="Capa_1" xmlns="http://www.w3.org/2000/svg" xmlns:xlink="http://www.w3.org/1999/xlink" x="0px" y="0px"
	 viewBox="0 0 512 512" style="enable-background:new 0 0 512 512;" xml:space="preserve">
<g>
	<path d="M469.3,85.3h-42.7h-64v-64c0-11.8-9.5-21.3-21.3-21.3H170.7c-11.8,0-21.3,9.6-21.3,21.3v64h-64H42.7
		c-11.8,0-21.3,9.6-21.3,21.3c0,11.7,9.5,21.4,21.3,21.4H64v320c0,35.3,28.7,64,64,64h256c35.3,0,64-28.7,64-64V128h21.3
		c11.8,0,21.3-9.6,21.3-21.3S481.1,85.3,469.3,85.3z M192,42.7h128v42.7H192V42.7z M405.3,448c0,11.8-9.6,21.3-21.3,21.3H128
		c-11.8,0-21.3-9.6-21.3-21.3V128h64h170.7h64L405.3,448z" fill="#3e3e3e"/>
	<path d="M192,170.7c-11.8,0-21.3,9.6-21.3,21.3v192c0,11.8,9.5,21.3,21.3,21.3s21.3-9.6,21.3-21.3V192
		C213.3,180.2,203.8,170.7,192,170.7z" fill="#3e3e3e"/>
	<path d="M320,170.7c-11.8,0-21.3,9.6-21.3,21.3v192c0,11.8,9.5,21.3,21.3,21.3s21.3-9.6,21.3-21.3V192
		C341.3,180.2,331.8,170.7,320,170.7z" fill="#3e3e3e"/>
</g>
</svg>
