<?xml version="1.0" encoding="utf-8"?>
<!-- Generator: Adobe Illustrator 25.4.1, SVG Export Plug-In . SVG Version: 6.00 Build 0)  -->
<svg version="1.1" id="Layer_1" xmlns="http://www.w3.org/2000/svg" xmlns:xlink="http://www.w3.org/1999/xlink" x="0px" y="0px"
	 viewBox="0 0 512 512" style="enable-background:new 0 0 512 512;" xml:space="preserve">
<style type="text/css">
	.st0{fill:#FFFFFF;}
</style>
<g>
	<path class="st0" d="M256,0C114.8,0,0,114.8,0,256s114.8,256,256,256s256-114.8,256-256S397.2,0,256,0z M256,480
		C132.5,480,32,379.5,32,256S132.5,32,256,32s224,100.5,224,224S379.5,480,256,480z"/>
	<path class="st0" d="M368,240h-96v-96c0-8.8-7.2-16-16-16s-16,7.2-16,16v96h-96c-8.8,0-16,7.2-16,16s7.2,16,16,16h96v96
		c0,8.8,7.2,16,16,16s16-7.2,16-16v-96h96c8.8,0,16-7.2,16-16S376.8,240,368,240z"/>
</g>
</svg>
