<?xml version="1.0" encoding="utf-8"?>
<!-- Generator: Adobe Illustrator 25.4.1, SVG Export Plug-In . SVG Version: 6.00 Build 0)  -->
<svg version="1.1" id="_x31__px" xmlns="http://www.w3.org/2000/svg" xmlns:xlink="http://www.w3.org/1999/xlink" x="0px" y="0px"
	 viewBox="0 0 512 512" style="enable-background:new 0 0 512 512;" xml:space="preserve">
<style type="text/css">
	.st0{fill:#FFFFFF;}
</style>
<g>
	<path class="st0" d="M458.7,128h-53.3V53.3C405.3,23.9,381.4,0,352,0H160c-29.4,0-53.3,23.9-53.3,53.3V128H53.3
		C23.9,128,0,151.9,0,181.3v149.3C0,360.1,23.9,384,53.3,384h53.3v74.7c0,29.4,23.9,53.3,53.3,53.3h192c29.4,0,53.3-23.9,53.3-53.3
		V384h53.3c29.4,0,53.3-23.9,53.3-53.3V181.3C512,151.9,488.1,128,458.7,128z M128,53.3c0-17.6,14.4-32,32-32h192
		c17.6,0,32,14.4,32,32V128H128V53.3z M384,458.7c0,17.6-14.4,32-32,32H160c-17.6,0-32-14.4-32-32v-160h256V458.7z M490.7,330.7
		c0,17.6-14.4,32-32,32h-53.3V288c0-5.9-4.8-10.7-10.7-10.7H117.3c-5.9,0-10.7,4.8-10.7,10.7v74.7H53.3c-17.6,0-32-14.4-32-32V181.3
		c0-17.6,14.4-32,32-32h405.3c17.6,0,32,14.4,32,32V330.7z"/>
	<path class="st0" d="M309.3,426.7h-128c-5.9,0-10.7,4.8-10.7,10.7c0,5.9,4.8,10.7,10.7,10.7h128c5.9,0,10.7-4.8,10.7-10.7
		C320,431.4,315.2,426.7,309.3,426.7z"/>
	<path class="st0" d="M309.3,384h-128c-5.9,0-10.7,4.8-10.7,10.7s4.8,10.7,10.7,10.7h128c5.9,0,10.7-4.8,10.7-10.7
		S315.2,384,309.3,384z"/>
	<path class="st0" d="M181.3,362.7H224c5.9,0,10.7-4.8,10.7-10.7c0-5.9-4.8-10.7-10.7-10.7h-42.7c-5.9,0-10.7,4.8-10.7,10.7
		C170.7,357.9,175.4,362.7,181.3,362.7z"/>
</g>
</svg>
