<?xml version="1.0" encoding="utf-8"?>
<!-- Generator: Adobe Illustrator 25.4.1, SVG Export Plug-In . SVG Version: 6.00 Build 0)  -->
<svg version="1.1" id="Layer_1" xmlns="http://www.w3.org/2000/svg" xmlns:xlink="http://www.w3.org/1999/xlink" x="0px" y="0px"
	 viewBox="0 0 512 512" style="enable-background:new 0 0 512 512;" xml:space="preserve">
<style type="text/css">
	.st0{fill:#FFFFFF;}
</style>
<g>
	<path class="st0" d="M496.7,312.1l-47.1-36.8c0.6-5.7,1.1-12.3,1.1-19.3c0-7-0.5-13.7-1.1-19.3l47.1-36.8
		c8.7-6.9,11.2-19.2,5.6-29.4l-48.9-84.7C448,76,436,71.6,425,75.6l-55.5,22.3c-10.6-7.7-21.8-14.2-33.3-19.3l-8.4-58.9
		C326.3,8.4,316.6,0,305.1,0H207c-11.5,0-21.2,8.4-22.6,19.4l-8.5,59.1c-11.2,5.1-22.2,11.4-33.3,19.4L87,75.6
		c-10.6-4.2-22.8,0.2-28.1,10l-49,84.8c-5.8,9.8-3.4,22.4,5.5,29.5l47.1,36.8c-0.7,7.2-1.1,13.5-1.1,19.3s0.4,12.1,1.1,19.3
		l-47.1,36.8c-8.7,6.9-11.1,19.2-5.5,29.4l48.9,84.7C64,436,76,440.4,87,436.4l55.5-22.3c10.6,7.7,21.8,14.1,33.3,19.3l8.4,58.9
		c1.4,11.2,11.1,19.6,22.6,19.6h98.1c11.5,0,21.2-8.4,22.6-19.4l8.5-59.1c11.2-5.1,22.2-11.4,33.3-19.4l55.7,22.4
		c10.6,4.1,22.8-0.2,28.1-10l49.2-85.1C507.8,331.4,505.4,319.1,496.7,312.1z M483.8,330.9l-50.8,85.7l-61.1-24.5
		c-3.5-1.4-7.4-0.9-10.4,1.4c-13.2,9.9-26,17.3-39.1,22.7c-3.5,1.4-6,4.6-6.5,8.4l-10.8,66.2l-99.6-1.1l-9.3-65
		c-0.6-3.8-3-6.9-6.5-8.4c-13.6-5.6-26.8-13.2-39-22.6c-1.9-1.5-4.2-2.2-6.5-2.2c-1.3,0-2.7,0.2-4,0.8l-62.8,23.7l-48.9-84.7
		c-0.4-0.8-0.4-1.8,0.1-2.2l51.8-40.5c2.9-2.3,4.5-6,4-9.7c-1.1-8.9-1.6-16.2-1.6-22.7s0.5-13.8,1.6-22.7c0.5-3.7-1.1-7.4-4-9.7
		l-52-42.4l50.8-85.7l61.1,24.5c3.5,1.4,7.4,0.9,10.4-1.4c13.2-9.9,26-17.3,39.1-22.7c3.5-1.5,6-4.6,6.5-8.4L207,21.3l99.6,1.2
		l9.3,65c0.6,3.8,3,6.9,6.5,8.4c13.6,5.6,26.7,13.2,39,22.6c3,2.3,7,2.9,10.5,1.4l62.8-23.7l48.9,84.7c0.4,0.8,0.4,1.8-0.1,2.2
		l-51.8,40.5c-2.9,2.3-4.5,6-4,9.7c0.8,6.5,1.6,14.3,1.6,22.7c0,8.5-0.8,16.2-1.6,22.7c-0.5,3.7,1.1,7.4,4,9.7l51.7,40.4
		C484,329.3,484.1,330.3,483.8,330.9z"/>
	<path class="st0" d="M256,149.3c-58.8,0-106.7,47.9-106.7,106.7c0,58.8,47.9,106.7,106.7,106.7c58.8,0,106.7-47.9,106.7-106.7
		S314.8,149.3,256,149.3z M256,341.3c-47.1,0-85.3-38.3-85.3-85.3c0-47.1,38.3-85.3,85.3-85.3c47.1,0,85.3,38.3,85.3,85.3
		C341.4,303.1,303.1,341.3,256,341.3z"/>
</g>
</svg>
